PathFileType	4	(X/Y/Z)	E:\MaartenAfschrift\ProcessCardiffData\Gait_Perturbation\osimData\Patient15\Static.trc
DataRate	CameraRate	NumFrames	NumMarkers	Units	OrigDataRate	OrigDataStartFrame	OrigNumFrames
200.000000	200.000000	4	55	m	200.000000	1	547
Frame#	Times	LFHD			RFHD			LBHD			RBHD			C7			CLAV			LSHO			LUA1			LELB			LLA1			LWRA			LWRB			LFIN			RSHO			RUA1			RELB			RLA1			RWRA			RWRB			RFIN			LASI			RASI			RPSI			LPSI			LTHI			LTHI2			LTHI3			LKNE			LKNEmed			LTIB			LTIB2			LTIB3			LANK			LANKmed			LHEE			LTOE			LLatFoot			RTHI			RTHI2			RTHI3			RKNE			RKNEmed			RTIB			RTIB2			RTIB3			RANK			RANKmed			RHEE			RTOE			RLatFoot			Unlabeled50			Unlabeled51			Unlabeled52			*53			*54
		X1	Y1	Z1	X2	Y2	Z2	X3	Y3	Z3	X4	Y4	Z4	X5	Y5	Z5	X6	Y6	Z6	X7	Y7	Z7	X8	Y8	Z8	X9	Y9	Z9	X10	Y10	Z10	X11	Y11	Z11	X12	Y12	Z12	X13	Y13	Z13	X14	Y14	Z14	X15	Y15	Z15	X16	Y16	Z16	X17	Y17	Z17	X18	Y18	Z18	X19	Y19	Z19	X20	Y20	Z20	X21	Y21	Z21	X22	Y22	Z22	X23	Y23	Z23	X24	Y24	Z24	X25	Y25	Z25	X26	Y26	Z26	X27	Y27	Z27	X28	Y28	Z28	X29	Y29	Z29	X30	Y30	Z30	X31	Y31	Z31	X32	Y32	Z32	X33	Y33	Z33	X34	Y34	Z34	X35	Y35	Z35	X36	Y36	Z36	X37	Y37	Z37	X38	Y38	Z38	X39	Y39	Z39	X40	Y40	Z40	X41	Y41	Z41	X42	Y42	Z42	X43	Y43	Z43	X44	Y44	Z44	X45	Y45	Z45	X46	Y46	Z46	X47	Y47	Z47	X48	Y48	Z48	X49	Y49	Z49	X50	Y50	Z50	X51	Y51	Z51	X52	Y52	Z52	X53	Y53	Z53	X54	Y54	Z54	X55	Y55	Z55

1	0.005	-0.055081	1.5469	0.08467	-0.0085256	1.5671	-0.050999	-0.17302	1.5034	0.052583	-0.14326	1.5167	-0.085035	-0.18344	1.3611	0.0071521	-0.046909	1.3178	-0.0031926	-0.15406	1.3073	-0.19691	-0.11767	1.1494	-0.24155	-0.1141	1.0163	-0.25409	-0.046661	0.93093	-0.24471	-0.0023123	0.80581	-0.20586	-0.030993	0.79179	-0.26688	0.0069415	0.75343	-0.24728	-0.11379	1.2969	0.19935	-0.1201	1.1528	0.2337	-0.095514	1.0084	0.2451	-0.036854	0.91285	0.23906	0.0027617	0.80116	0.19965	-0.041857	0.77996	0.25552	0.0098666	0.75045	0.24353	-0.015842	0.91288	-0.12562	-0.012524	0.9061	0.10906	-0.21272	0.93617	0.035129	-0.21234	0.93582	-0.035552	-0.12047	0.54679	-0.16526	-0.17809	0.55483	-0.161	-0.14743	0.51152	-0.16101	-0.11836	0.45514	-0.14821	-0.14883	0.43259	-0.02779	-0.15407	0.26651	-0.17321	-0.2157	0.27249	-0.17093	-0.18729	0.22211	-0.16765	-0.17925	0.08683	-0.14239	-0.1783	0.094177	-0.06365	-0.25126	0.046093	-0.1052	-0.050593	0.053145	-0.081625	-0.12405	0.024253	-0.1676	-0.095405	0.62496	0.16588	-0.16656	0.64289	0.15641	-0.14181	0.58898	0.15626	-0.12858	0.45283	0.12625	-0.15802	0.43855	-0.00015	-0.15873	0.26136	0.1463	-0.21396	0.26718	0.14903	-0.19303	0.21612	0.14448	-0.18311	0.085423	0.1266	-0.17543	0.087544	0.04546	-0.2492	0.038435	0.08748	-0.050158	0.050543	0.065155	-0.12908	0.02525	0.15091	0.45998	0.033976	-0.61723	-0.25972	0.02461	-0.63415	0.31973	0.035469	0.57598	-0.32408	0.022224	0.60124	0	0	0
2	0.01	-0.054953	1.5469	0.084693	-0.0083509	1.567	-0.050968	-0.17288	1.5035	0.052656	-0.14306	1.5168	-0.085084	-0.18335	1.3611	0.0070914	-0.046836	1.3177	-0.0031473	-0.15388	1.3073	-0.1969	-0.11748	1.1494	-0.24156	-0.114	1.0163	-0.25415	-0.046475	0.93094	-0.24468	-0.0019103	0.80593	-0.20577	-0.030749	0.79178	-0.26683	0.0071811	0.75345	-0.24722	-0.11384	1.2969	0.1994	-0.12017	1.1527	0.23371	-0.095599	1.0085	0.24509	-0.036977	0.91283	0.23912	0.002588	0.80108	0.19973	-0.041969	0.77986	0.25555	0.00968	0.7504	0.24363	-0.01576	0.91286	-0.12556	-0.012542	0.90611	0.10913	-0.21269	0.93615	0.03509	-0.21224	0.93584	-0.035618	-0.12042	0.54681	-0.16527	-0.17801	0.55482	-0.16092	-0.14736	0.51153	-0.161	-0.11833	0.45511	-0.14819	-0.14882	0.43261	-0.02779	-0.15406	0.26644	-0.17318	-0.21568	0.27244	-0.17091	-0.18729	0.22212	-0.16767	-0.17928	0.086856	-0.14237	-0.17824	0.094219	-0.06357	-0.25125	0.046136	-0.10518	-0.050513	0.05317	-0.08159	-0.12409	0.024276	-0.16763	-0.0955	0.62496	0.16591	-0.16659	0.64288	0.15642	-0.14184	0.58898	0.15627	-0.12862	0.45283	0.12624	-0.15803	0.43856	-0.00014398	-0.16042	0.26113	0.1471	-0.21399	0.26721	0.14904	-0.19304	0.21612	0.14449	-0.18308	0.085416	0.1266	-0.17546	0.087537	0.045487	-0.24925	0.038417	0.087476	-0.050544	0.050453	0.065064	-0.1291	0.025236	0.15086	0.46002	0.034029	-0.61717	-0.25966	0.024644	-0.63411	0.31957	0.035519	0.57594	-0.32401	0.022186	0.60132	0	0	0
3	0.015	-0.054798	1.5468	0.084719	-0.0081497	1.567	-0.050925	-0.17278	1.5035	0.052622	-0.1429	1.5168	-0.085078	-0.18329	1.3611	0.007094	-0.046811	1.3177	-0.0031161	-0.15365	1.3072	-0.19689	-0.11729	1.1494	-0.24156	-0.11368	1.0162	-0.25411	-0.046292	0.93094	-0.24463	-0.0018606	0.80586	-0.20571	-0.030475	0.7918	-0.26676	0.0074014	0.75347	-0.24715	-0.11389	1.2969	0.19942	-0.12027	1.1527	0.23372	-0.09567	1.0085	0.24513	-0.037122	0.9128	0.23919	0.0024615	0.80105	0.19986	-0.042138	0.77987	0.25565	0.0095427	0.75039	0.24376	-0.01565	0.91285	-0.1255	-0.012564	0.90609	0.10916	-0.21265	0.93618	0.035037	-0.21226	0.93583	-0.035677	-0.12031	0.54682	-0.1653	-0.17795	0.55481	-0.16094	-0.14725	0.51152	-0.16098	-0.11827	0.45512	-0.1482	-0.1488	0.43257	-0.027816	-0.15403	0.26649	-0.17312	-0.21566	0.27242	-0.17088	-0.18724	0.22212	-0.16764	-0.17923	0.086881	-0.14225	-0.17828	0.094152	-0.063698	-0.25125	0.046132	-0.10519	-0.050541	0.053168	-0.081609	-0.12417	0.024248	-0.16763	-0.095537	0.62494	0.16596	-0.1666	0.6429	0.15642	-0.14188	0.58901	0.15623	-0.12865	0.45282	0.12627	-0.15799	0.43857	-0.00013459	-0.16047	0.26114	0.14714	-0.21396	0.26719	0.14893	-0.1929	0.21613	0.14443	-0.18312	0.085408	0.1266	-0.17547	0.087556	0.045462	-0.24923	0.038427	0.087503	-0.050602	0.050457	0.065167	-0.12911	0.025251	0.15089	0.45999	0.03405	-0.61726	-0.26022	0.024602	-0.63483	0.31931	0.035548	0.57599	-0.32391	0.022253	0.60128	0	0	0
4	0.02	-0.054693	1.5468	0.08474	-0.0079778	1.5669	-0.050887	-0.1727	1.5036	0.052666	-0.14274	1.5168	-0.085094	-0.18327	1.361	0.0070501	-0.046765	1.3177	-0.0030938	-0.15357	1.3072	-0.19693	-0.11711	1.1493	-0.24156	-0.11343	1.0162	-0.25409	-0.046071	0.93092	-0.24457	-0.0014818	0.80596	-0.20561	-0.030208	0.7918	-0.2667	0.0076964	0.75349	-0.24706	-0.11393	1.2969	0.19942	-0.12036	1.1527	0.23371	-0.09583	1.0084	0.2452	-0.037205	0.91278	0.23926	0.0023232	0.80103	0.19995	-0.042323	0.77981	0.25564	0.0093664	0.75034	0.24387	-0.015573	0.91284	-0.12542	-0.012565	0.9061	0.10924	-0.21259	0.93615	0.035036	-0.21222	0.93584	-0.035609	-0.12028	0.54681	-0.16526	-0.17789	0.55484	-0.16097	-0.14718	0.51151	-0.16098	-0.1183	0.45511	-0.1482	-0.14882	0.43261	-0.027751	-0.15401	0.26651	-0.17316	-0.21562	0.27245	-0.17089	-0.18722	0.22212	-0.16767	-0.17921	0.086855	-0.1423	-0.1783	0.094152	-0.063687	-0.25125	0.046135	-0.10518	-0.050546	0.053139	-0.081571	-0.12407	0.024297	-0.16765	-0.095535	0.62495	0.16598	-0.16664	0.6429	0.1564	-0.14191	0.58901	0.15627	-0.12858	0.45285	0.12628	-0.15796	0.4386	-9.8613e-05	-0.16044	0.26113	0.14713	-0.21396	0.26718	0.14901	-0.19299	0.21613	0.14446	-0.1831	0.085419	0.12659	-0.17546	0.087556	0.045499	-0.24922	0.038382	0.087434	-0.050494	0.050455	0.065147	-0.1291	0.025212	0.15086	0.46003	0.034048	-0.61721	-0.26009	0.024509	-0.63505	0.31988	0.035507	0.57599	-0.32385	0.022216	0.60128	0	0	0
